<svg width="154" height="60" viewBox="0 0 154 60" fill="none" xmlns="http://www.w3.org/2000/svg">
<path d="M59.8278 39.8619V38.2109C59.6975 38.5151 59.5888 38.8626 59.502 39.2319L59.8278 39.8619Z" fill="#D1D3D4"/>
<path d="M71.5368 39.9289V37.6914C71.3195 38.1259 71.1457 38.6255 71.0371 39.1903L71.5368 39.9289Z" fill="#D1D3D4"/>
<path d="M82.8329 39.319C82.7023 38.7759 82.5064 38.298 82.2453 37.8418C81.9188 38.3197 81.6359 38.8411 81.3965 39.4493L82.8329 39.319Z" fill="#D1D3D4"/>
<path d="M24.832 16.7484C26.1379 15.206 27.8572 14.0981 29.8159 13.6419C30.4688 13.4899 31.1653 13.403 31.8835 13.403C34.6692 13.403 37.1721 14.7064 38.9132 16.7484L34.9957 10.1445C34.7563 9.73174 34.4516 9.38416 34.1034 9.10176C32.4493 7.75491 29.9683 8.10248 28.7495 10.1445L24.832 16.7484Z" fill="#D1D3D4"/>
<path d="M46.5098 32.3026L42.0047 23.874C40.0459 20.2244 36.8684 18.139 33.4951 17.5742C33.4951 17.5742 33.4951 17.5742 33.4733 17.5742C32.8857 17.4656 32.2763 17.4004 31.6669 17.4004C31.0358 17.4004 30.4482 17.4656 29.8605 17.5742C26.4654 18.1173 23.2879 20.2244 21.3292 23.874L16.8241 32.3026L10.7302 43.7074C10.0338 44.9891 9.81616 46.3359 9.92498 47.6828C10.5996 55.6118 21.6339 54.9167 21.6339 46.9442V45.3584V34.475C21.6339 34.4533 21.6339 34.4533 21.6339 34.4315V34.475C21.6339 29.2396 25.0725 24.8515 29.6647 23.8522C30.3176 23.7002 30.9922 23.635 31.6887 23.635C34.4527 23.635 36.9773 24.8515 38.8054 26.8066C40.6336 28.7617 41.7435 31.4771 41.7435 34.475V45.3801V46.8356C41.7435 54.7646 52.7342 55.4163 53.3436 47.509C53.4524 46.1404 53.213 44.7936 52.5166 43.4902L46.5098 32.3026Z" fill="#D1D3D4"/>
<path d="M54.3867 52.4612V34.1701H59.0877V38.5582L58.7612 37.9283C59.153 36.3859 59.8277 35.3432 60.7635 34.8001C61.6993 34.257 62.7875 33.9746 64.0716 33.9746H65.138V38.3193H63.5492C62.3087 38.3193 61.3293 38.6886 60.5676 39.4489C59.8059 40.1875 59.4359 41.2519 59.4359 42.6205V52.4612H54.3867Z" fill="#D1D3D4"/>
<path d="M66.0977 52.4634V34.1723H70.7986V38.6256L70.298 37.887C70.5592 36.4749 71.2121 35.4322 72.235 34.7805C73.2579 34.1071 74.4984 33.7812 75.9348 33.7812C77.4583 33.7812 78.7859 34.1723 79.9394 34.9326C81.0928 35.6929 81.8111 36.7356 82.094 38.039L80.6576 38.1694C81.267 36.6705 82.1157 35.5626 83.2475 34.8457C84.3574 34.1288 85.6632 33.7812 87.1649 33.7812C88.4925 33.7812 89.646 34.0637 90.6689 34.6502C91.6918 35.2367 92.4753 36.0405 93.0629 37.0832C93.6505 38.1259 93.9334 39.3424 93.9334 40.711V52.4634H88.906V41.7755C88.906 41.0586 88.7754 40.4503 88.5143 39.929C88.2531 39.4076 87.8831 39.0166 87.4261 38.7342C86.9473 38.4518 86.3814 38.2997 85.7068 38.2997C85.0538 38.2997 84.488 38.4518 84.0092 38.7342C83.5304 39.0166 83.1604 39.4293 82.8992 39.929C82.6381 40.4503 82.5075 41.0586 82.5075 41.7755V52.4634H77.4801V41.7755C77.4801 41.0586 77.3495 40.4503 77.0883 39.929C76.8272 39.4076 76.4572 39.0166 76.0001 38.7342C75.5213 38.4518 74.9555 38.2997 74.2808 38.2997C73.6279 38.2997 73.062 38.4518 72.5832 38.7342C72.1044 39.0166 71.7345 39.4293 71.4733 39.929C71.2121 40.4503 71.0815 41.0586 71.0815 41.7755V52.4634H66.0977Z" fill="#D1D3D4"/>
<path d="M60.6989 38.1236V36.4727C60.5686 36.7768 60.4599 37.1244 60.373 37.4937L60.6989 38.1236Z" fill="#D1D3D4"/>
<path d="M72.4059 38.1906V35.9531C72.1887 36.3876 72.0149 36.8872 71.9062 37.452L72.4059 38.1906Z" fill="#D1D3D4"/>
<path d="M83.702 37.5807C83.5714 37.0376 83.3756 36.5597 83.1144 36.1035C82.788 36.5814 82.505 37.1028 82.2656 37.711L83.702 37.5807Z" fill="#D1D3D4"/>
<path d="M32.4286 27.2188L27.1836 30.8466V34.9088L32.4286 31.281L37.6737 34.9088V30.8466L32.4286 27.2188Z" fill="#FFA048"/>
<path d="M27.1836 37.5594V41.6L32.4286 37.9722L37.6737 41.6V37.5594L32.4286 33.9316L27.1836 37.5594Z" fill="#FFA048"/>
<path d="M27.1836 44.2509V48.3131L32.4286 44.6636L37.6737 48.3131V44.2509L32.4286 40.623L27.1836 44.2509Z" fill="#FFA048"/>
<path d="M37.7599 35.0623L32.4278 31.3694L27.0957 35.0623V30.7828L27.1392 30.7611L32.4278 27.0898L32.4931 27.1333L37.7599 30.8045V35.0623ZM27.2916 30.8697V34.693L32.4278 31.1304L32.4931 31.1738L37.564 34.693V30.8697L32.4278 27.3071L27.2916 30.8697Z" fill="#1E344E"/>
<path d="M37.7599 41.7537L32.4278 38.0608L27.0957 41.7537V37.4742L27.1392 37.4525L32.4278 33.7812L32.4931 33.8247L37.7599 37.496V41.7537ZM27.2916 37.5828V41.4062L32.4278 37.8435L32.4931 37.887L37.564 41.4062V37.5828L32.4278 33.9985L27.2916 37.5828Z" fill="#1E344E"/>
<path d="M37.7599 48.4649L32.4278 44.7502L27.0957 48.4432V44.1637L27.1392 44.142L32.4278 40.4707L32.4931 40.5141L37.7599 44.1854V48.4649ZM27.2916 44.2723V48.0956L32.4278 44.533L32.4931 44.5764L37.564 48.0956V44.2723L32.4278 40.7097L27.2916 44.2723Z" fill="#1E344E"/>
<path d="M25.4844 15.6625C26.7902 14.1201 28.5095 13.0122 30.4683 12.556C31.1212 12.4039 31.8176 12.3171 32.5358 12.3171C35.3216 12.3171 37.8244 13.6205 39.5655 15.6625L35.648 9.05854C35.4086 8.6458 35.1039 8.29822 34.7557 8.01582C33.1017 6.66897 30.6206 7.01654 29.4018 9.05854L25.4844 15.6625Z" fill="#298DFE"/>
<path d="M47.3809 30.5644L42.8758 22.1357C40.917 18.4862 37.7395 16.4007 34.3662 15.8359C34.3662 15.8359 34.3662 15.8359 34.3444 15.8359C33.7568 15.7273 33.1474 15.6621 32.538 15.6621C31.9069 15.6621 31.3192 15.7273 30.7316 15.8359C27.3365 16.379 24.159 18.4862 22.2003 22.1357L17.6952 30.5644L11.6013 41.9691C10.9049 43.2508 10.6873 44.5977 10.7961 45.9445C11.4707 53.8735 22.5049 53.1784 22.5049 45.2059V43.6201V32.7367C22.5049 32.715 22.5049 32.715 22.5049 32.6932V32.7367C22.5049 27.5014 25.9436 23.1132 30.5358 22.114C31.1887 21.9619 31.8633 21.8967 32.5598 21.8967C35.3238 21.8967 37.8484 23.1132 39.6765 25.0683C41.5047 27.0234 42.6146 29.7389 42.6146 32.7367V43.6418V45.0973C42.6146 53.0263 53.6053 53.678 54.2147 45.7707C54.3235 44.4022 54.0841 43.0553 53.3876 41.7519L47.3809 30.5644Z" fill="#298DFE"/>
<path d="M55.2578 50.7249V32.4338H59.9588V36.8219L59.6323 36.1919C60.0241 34.6496 60.6987 33.6069 61.6346 33.0638C62.5704 32.5207 63.6586 32.2383 64.9427 32.2383H66.0091V36.583H64.4203C63.1798 36.583 62.2004 36.9523 61.4387 37.7126C60.677 38.4512 60.307 39.5156 60.307 40.8842V50.7249H55.2578Z" fill="#298DFE"/>
<path d="M66.9668 50.7251V32.434H71.6678V36.8873L71.1672 36.1487C71.4284 34.7367 72.0813 33.6939 73.1042 33.0422C74.1271 32.3688 75.3676 32.043 76.804 32.043C78.3274 32.043 79.655 32.434 80.8085 33.1943C81.962 33.9546 82.6802 34.9974 82.9631 36.3008L81.5267 36.4311C82.1361 34.9322 82.9849 33.8243 84.1166 33.1074C85.2265 32.3905 86.5324 32.043 88.0341 32.043C89.3617 32.043 90.5151 32.3254 91.538 32.9119C92.5609 33.4984 93.3444 34.3022 93.932 35.3449C94.5197 36.3876 94.8026 37.6042 94.8026 38.9727V50.7251H89.7752V40.0372C89.7752 39.3203 89.6446 38.712 89.3834 38.1907C89.1223 37.6693 88.7523 37.2783 88.2952 36.9959C87.8164 36.7135 87.2506 36.5614 86.5759 36.5614C85.923 36.5614 85.3571 36.7135 84.8783 36.9959C84.3995 37.2783 84.0295 37.6911 83.7684 38.1907C83.5072 38.712 83.3766 39.3203 83.3766 40.0372V50.7251H78.3492V40.0372C78.3492 39.3203 78.2186 38.712 77.9575 38.1907C77.6963 37.6693 77.3263 37.2783 76.8693 36.9959C76.3905 36.7135 75.8246 36.5614 75.1499 36.5614C74.497 36.5614 73.9312 36.7135 73.4524 36.9959C72.9736 37.2783 72.6036 37.6911 72.3424 38.1907C72.0813 38.712 71.9507 39.3203 71.9507 40.0372V50.7251H66.9668Z" fill="#298DFE"/>
<path d="M97.0218 34.2135H101.701V36.451C102.18 35.5604 102.854 34.887 103.747 34.4525C104.639 34.018 105.662 33.8008 106.815 33.8008C108.208 33.8008 109.405 34.0832 110.45 34.6697C111.495 35.2562 112.3 36.06 112.888 37.1027C113.475 38.1455 113.758 39.3402 113.758 40.7305V52.4612H108.731V41.795C108.731 40.7523 108.426 39.9051 107.795 39.2751C107.164 38.6451 106.358 38.3192 105.379 38.3192C104.4 38.3192 103.594 38.6451 102.963 39.2751C102.332 39.9051 102.027 40.7523 102.027 41.795V52.4612H97V34.2135H97.0218Z" fill="#D1D3D4"/>
<path d="M119.285 38.5591H116.217V34.2144H119.285V33.9537C119.285 31.8031 119.917 30.1304 121.179 28.9356C122.441 27.7626 124.204 27.1543 126.489 27.1543C127.164 27.1543 127.752 27.2195 128.274 27.3281V31.6076C127.86 31.5424 127.49 31.499 127.164 31.499C125.27 31.499 124.313 32.3027 124.313 33.932V34.1927H128.23V38.5374H124.313V52.4403H119.285V38.5591Z" fill="#D1D3D4"/>
<path d="M135.479 50.6821C134.26 49.4873 133.651 47.8363 133.651 45.6857V38.3649H130.582V34.0203H130.756C132.693 34.0203 133.672 33.0862 133.672 31.2179V29.8711H138.7V34.0203H142.987V38.3649H138.7V45.3381C138.7 47.1846 139.745 48.1187 141.812 48.1187C142.117 48.1187 142.509 48.0753 142.987 48.0101V52.2896C142.247 52.3982 141.464 52.4634 140.637 52.4634C138.395 52.4634 136.698 51.8769 135.479 50.6821Z" fill="#D1D3D4"/>
<path d="M97.8929 32.4323H102.572V34.6698C103.051 33.7791 103.726 33.1057 104.618 32.6712C105.51 32.2368 106.533 32.0195 107.687 32.0195C109.079 32.0195 110.276 32.3019 111.321 32.8885C112.366 33.475 113.171 34.2788 113.759 35.3215C114.346 36.3642 114.629 37.559 114.629 38.9493V50.6799H109.602V40.0137C109.602 38.971 109.297 38.1238 108.666 37.4938C108.035 36.8638 107.229 36.538 106.25 36.538C105.271 36.538 104.465 36.8638 103.834 37.4938C103.203 38.1238 102.899 38.971 102.899 40.0137V50.6799H97.8711V32.4323H97.8929Z" fill="#1E344E"/>
<path d="M120.157 36.7778H117.088V32.4331H120.157V32.1725C120.157 30.0219 120.788 28.3492 122.05 27.1544C123.312 25.9813 125.075 25.373 127.36 25.373C128.035 25.373 128.623 25.4382 129.145 25.5468V29.8263C128.731 29.7612 128.361 29.7177 128.035 29.7177C126.142 29.7177 125.184 30.5215 125.184 32.1507V32.4114H129.101V36.7561H125.184V50.6591H120.157V36.7778Z" fill="#1E344E"/>
<path d="M136.35 48.9009C135.131 47.7061 134.522 46.0551 134.522 43.9045V36.5837H131.453V32.239H131.627C133.564 32.239 134.544 31.3049 134.544 29.4367V28.0898H139.571V32.239H143.858V36.5837H139.571V43.5569C139.571 45.4034 140.616 46.3375 142.683 46.3375C142.988 46.3375 143.38 46.294 143.858 46.2289V50.5084C143.118 50.617 142.335 50.6822 141.508 50.6822C139.266 50.6822 137.569 50.0956 136.35 48.9009Z" fill="#1E344E"/>
</svg>
