<svg width="16" height="16" viewBox="0 0 16 16" fill="none" xmlns="http://www.w3.org/2000/svg">
<path d="M8.00016 1.33398C4.32683 1.33398 1.3335 4.32732 1.3335 8.00065C1.3335 11.674 4.32683 14.6673 8.00016 14.6673C11.6735 14.6673 14.6668 11.674 14.6668 8.00065C14.6668 4.32732 11.6735 1.33398 8.00016 1.33398ZM10.9002 10.3807C10.8068 10.5407 10.6402 10.6273 10.4668 10.6273C10.3802 10.6273 10.2935 10.6073 10.2135 10.554L8.14683 9.32065C7.6335 9.01398 7.2535 8.34065 7.2535 7.74732V5.01398C7.2535 4.74065 7.48016 4.51398 7.7535 4.51398C8.02683 4.51398 8.2535 4.74065 8.2535 5.01398V7.74732C8.2535 7.98732 8.4535 8.34065 8.66016 8.46065L10.7268 9.69398C10.9668 9.83398 11.0468 10.1407 10.9002 10.3807Z" fill="#38415B"/>
</svg>
