<svg width="28" height="28" viewBox="0 0 28 28" fill="none" xmlns="http://www.w3.org/2000/svg">
<g id="vuesax/outline/eye">
<g id="vuesax/outline/eye_2">
<g id="eye">
<path id="Vector" d="M14 19.0526C11.2117 19.0526 8.94833 16.7892 8.94833 14.0009C8.94833 11.2126 11.2117 8.94922 14 8.94922C16.7883 8.94922 19.0517 11.2126 19.0517 14.0009C19.0517 16.7892 16.7883 19.0526 14 19.0526ZM14 10.6992C12.18 10.6992 10.6983 12.1809 10.6983 14.0009C10.6983 15.8209 12.18 17.3026 14 17.3026C15.82 17.3026 17.3017 15.8209 17.3017 14.0009C17.3017 12.1809 15.82 10.6992 14 10.6992Z" fill="#298DFE"/>
<path id="Vector_2" d="M14 24.5232C9.61333 24.5232 5.47166 21.9566 2.62499 17.4999C1.38833 15.5749 1.38833 12.4366 2.62499 10.4999C5.48333 6.04323 9.62499 3.47656 14 3.47656C18.375 3.47656 22.5167 6.04323 25.3633 10.4999C26.6 12.4249 26.6 15.5632 25.3633 17.4999C22.5167 21.9566 18.375 24.5232 14 24.5232ZM14 5.22656C10.2317 5.22656 6.62666 7.4899 4.10666 11.4449C3.23166 12.8099 3.23166 15.1899 4.10666 16.5549C6.62666 20.5099 10.2317 22.7732 14 22.7732C17.7683 22.7732 21.3733 20.5099 23.8933 16.5549C24.7683 15.1899 24.7683 12.8099 23.8933 11.4449C21.3733 7.4899 17.7683 5.22656 14 5.22656Z" fill="#298DFE"/>
</g>
</g>
</g>
</svg>
