<svg width="32" height="32" viewBox="0 0 32 32" fill="none" xmlns="http://www.w3.org/2000/svg">
<g clip-path="url(#clip0_1275_34781)">
<path d="M16.0013 12.0013C14.9404 12.0013 13.923 12.4227 13.1729 13.1729C12.4227 13.923 12.0013 14.9404 12.0013 16.0013C12.0013 17.0622 12.4227 18.0796 13.1729 18.8297C13.923 19.5799 14.9404 20.0013 16.0013 20.0013C17.0622 20.0013 18.0796 19.5799 18.8297 18.8297C19.5799 18.0796 20.0013 17.0622 20.0013 16.0013C20.0013 14.9404 19.5799 13.923 18.8297 13.1729C18.0796 12.4227 17.0622 12.0013 16.0013 12.0013ZM16.0013 9.33463C17.7694 9.33464 19.4651 10.037 20.7153 11.2873C21.9656 12.5375 22.668 14.2332 22.668 16.0013C22.668 17.7694 21.9656 19.4651 20.7153 20.7153C19.4651 21.9656 17.7694 22.668 16.0013 22.668C14.2332 22.668 12.5375 21.9656 11.2873 20.7153C10.037 19.4651 9.33463 17.7694 9.33463 16.0013C9.33463 14.2332 10.037 12.5375 11.2873 11.2873C12.5375 10.037 14.2332 9.33464 16.0013 9.33463ZM24.668 9.0013C24.668 9.44333 24.4924 9.86725 24.1798 10.1798C23.8673 10.4924 23.4433 10.668 23.0013 10.668C22.5593 10.668 22.1353 10.4924 21.8228 10.1798C21.5102 9.86725 21.3346 9.44333 21.3346 9.0013C21.3346 8.55927 21.5102 8.13535 21.8228 7.82279C22.1353 7.51023 22.5593 7.33464 23.0013 7.33464C23.4433 7.33464 23.8673 7.51023 24.1798 7.82279C24.4924 8.13535 24.668 8.55927 24.668 9.0013ZM16.0013 5.33464C12.7026 5.33464 12.164 5.34397 10.6293 5.41197C9.58397 5.4613 8.88263 5.6013 8.23197 5.85464C7.6533 6.07863 7.23597 6.34664 6.79197 6.79197C6.37464 7.19517 6.05377 7.68741 5.8533 8.23197C5.59997 8.8853 5.45997 9.5853 5.41197 10.6293C5.34264 12.1013 5.33464 12.616 5.33464 16.0013C5.33464 19.3 5.34397 19.8386 5.41197 21.3733C5.4613 22.4173 5.6013 23.12 5.8533 23.7693C6.07997 24.3493 6.34664 24.7666 6.7893 25.2093C7.23864 25.6573 7.65597 25.9253 8.2293 26.1466C8.88797 26.4013 9.5893 26.5426 10.6293 26.5906C12.1013 26.66 12.616 26.668 16.0013 26.668C19.3 26.668 19.8386 26.6586 21.3733 26.5906C22.416 26.5413 23.1186 26.4013 23.7693 26.1493C24.3466 25.924 24.7666 25.656 25.2093 25.2133C25.6586 24.764 25.9266 24.3466 26.148 23.7733C26.4013 23.116 26.5426 22.4133 26.5906 21.3733C26.66 19.9013 26.668 19.3866 26.668 16.0013C26.668 12.7026 26.6586 12.164 26.5906 10.6293C26.5413 9.58664 26.4013 8.88263 26.148 8.23197C25.947 7.68797 25.6267 7.19592 25.2106 6.79197C24.8076 6.37443 24.3153 6.05352 23.7706 5.8533C23.1173 5.59997 22.416 5.45997 21.3733 5.41197C19.9013 5.34264 19.3866 5.33464 16.0013 5.33464ZM16.0013 2.66797C19.624 2.66797 20.076 2.6813 21.4973 2.74797C22.9173 2.81464 23.884 3.0373 24.7346 3.36797C25.6146 3.70664 26.356 4.1653 27.0973 4.9053C27.7753 5.57183 28.2999 6.37809 28.6346 7.26797C28.964 8.1173 29.188 9.0853 29.2546 10.5053C29.3173 11.9266 29.3346 12.3786 29.3346 16.0013C29.3346 19.624 29.3213 20.076 29.2546 21.4973C29.188 22.9173 28.964 23.884 28.6346 24.7346C28.3009 25.625 27.7761 26.4315 27.0973 27.0973C26.4306 27.7751 25.6244 28.2996 24.7346 28.6346C23.8853 28.964 22.9173 29.188 21.4973 29.2546C20.076 29.3173 19.624 29.3346 16.0013 29.3346C12.3786 29.3346 11.9266 29.3213 10.5053 29.2546C9.0853 29.188 8.11863 28.964 7.26797 28.6346C6.37774 28.3006 5.57134 27.7759 4.9053 27.0973C4.22718 26.4309 3.70254 25.6246 3.36797 24.7346C3.0373 23.8853 2.81464 22.9173 2.74797 21.4973C2.6853 20.076 2.66797 19.624 2.66797 16.0013C2.66797 12.3786 2.6813 11.9266 2.74797 10.5053C2.81464 9.08397 3.0373 8.11863 3.36797 7.26797C3.70162 6.37754 4.22637 5.57106 4.9053 4.9053C5.57153 4.22694 6.37787 3.70227 7.26797 3.36797C8.11863 3.0373 9.08397 2.81464 10.5053 2.74797C11.9266 2.6853 12.3786 2.66797 16.0013 2.66797Z" fill="#298DFE"/>
</g>
<defs>
<clipPath id="clip0_1275_34781">
<rect width="32" height="32" fill="white"/>
</clipPath>
</defs>
</svg>
