<svg width="32" height="33" viewBox="0 0 32 33" fill="none" xmlns="http://www.w3.org/2000/svg">
<path d="M28.0009 9.47265C27.9742 9.47265 27.9342 9.47265 27.8942 9.47265C20.8409 8.76598 13.8009 8.49932 6.82753 9.20598L4.10753 9.47265C3.54753 9.52598 3.0542 9.12598 3.00086 8.56598C2.94753 8.00598 3.34753 7.52598 3.8942 7.47265L6.6142 7.20598C13.7075 6.48598 20.8942 6.76598 28.0942 7.47265C28.6409 7.52598 29.0409 8.01932 28.9875 8.56598C28.9475 9.08598 28.5075 9.47265 28.0009 9.47265Z" fill="#878C9C"/>
<path d="M11.333 8.12602C11.2797 8.12602 11.2264 8.12602 11.1597 8.11268C10.6264 8.01935 10.253 7.49935 10.3464 6.96602L10.6397 5.21935C10.853 3.93935 11.1464 2.16602 14.253 2.16602H17.7464C20.8664 2.16602 21.1597 4.00602 21.3597 5.23268L21.653 6.96602C21.7464 7.51268 21.373 8.03268 20.8397 8.11268C20.293 8.20602 19.773 7.83268 19.693 7.29935L19.3997 5.56602C19.213 4.40602 19.173 4.17935 17.7597 4.17935H14.2664C12.853 4.17935 12.8264 4.36602 12.6264 5.55268L12.3197 7.28602C12.2397 7.77935 11.813 8.12602 11.333 8.12602Z" fill="#878C9C"/>
<path d="M20.2792 30.8334H11.7192C7.06588 30.8334 6.87921 28.2601 6.73255 26.1801L5.86588 12.7534C5.82588 12.2068 6.25255 11.7268 6.79921 11.6868C7.35921 11.6601 7.82588 12.0734 7.86588 12.6201L8.73255 26.0468C8.87921 28.0734 8.93255 28.8334 11.7192 28.8334H20.2792C23.0792 28.8334 23.1325 28.0734 23.2659 26.0468L24.1325 12.6201C24.1725 12.0734 24.6525 11.6601 25.1992 11.6868C25.7459 11.7268 26.1725 12.1934 26.1325 12.7534L25.2659 26.1801C25.1192 28.2601 24.9325 30.8334 20.2792 30.8334Z" fill="#878C9C"/>
<path d="M18.2134 23.5H13.7734C13.2268 23.5 12.7734 23.0467 12.7734 22.5C12.7734 21.9533 13.2268 21.5 13.7734 21.5H18.2134C18.7601 21.5 19.2134 21.9533 19.2134 22.5C19.2134 23.0467 18.7601 23.5 18.2134 23.5Z" fill="#878C9C"/>
<path d="M19.3346 18.166H12.668C12.1213 18.166 11.668 17.7127 11.668 17.166C11.668 16.6193 12.1213 16.166 12.668 16.166H19.3346C19.8813 16.166 20.3346 16.6193 20.3346 17.166C20.3346 17.7127 19.8813 18.166 19.3346 18.166Z" fill="#878C9C"/>
</svg>
