<svg width="32" height="32" viewBox="0 0 32 32" fill="none" xmlns="http://www.w3.org/2000/svg">
<g clip-path="url(#clip0_1275_34787)">
<path d="M28.7243 8.6627C29.3337 11.0387 29.3337 15.9987 29.3337 15.9987C29.3337 15.9987 29.3337 20.9587 28.7243 23.3347C28.3857 24.648 27.395 25.6814 26.1403 26.0307C23.8617 26.6654 16.0003 26.6654 16.0003 26.6654C16.0003 26.6654 8.14299 26.6654 5.86033 26.0307C4.60033 25.676 3.61099 24.644 3.27633 23.3347C2.66699 20.9587 2.66699 15.9987 2.66699 15.9987C2.66699 15.9987 2.66699 11.0387 3.27633 8.6627C3.61499 7.34936 4.60566 6.31603 5.86033 5.9667C8.14299 5.33203 16.0003 5.33203 16.0003 5.33203C16.0003 5.33203 23.8617 5.33203 26.1403 5.9667C27.4003 6.32136 28.3897 7.35336 28.7243 8.6627ZM13.3337 20.6654L21.3337 15.9987L13.3337 11.332V20.6654Z" fill="#298DFE"/>
</g>
<defs>
<clipPath id="clip0_1275_34787">
<rect width="32" height="32" fill="white"/>
</clipPath>
</defs>
</svg>
